/* XPM */
static char *result[] = {
/* columns rows colors chars-per-pixel */
"32 32 17 1 ",
"  c #383425",
". c #412E18",
"X c #563D1F",
"o c #4E4A3D",
"O c #5A4636",
"+ c #6C4C27",
"@ c #7B5B35",
"# c #745B46",
"$ c #7A776D",
"% c #8B6B44",
"& c #8B784E",
"* c #977B58",
"= c #968253",
"- c #9C8454",
"; c #AC955F",
": c #C2A86B",
"> c #D1BE87",
/* pixels */
"#O####O#######OO###O#####O######",
"&&&&&&&&&&&&&&&#-------#&&&&&&&#",
"&&&&&&&&&&&&&&&O-------#&&&&&&&#",
"&&&&&&&&&&&&&&&O-------#&&&&&&&O",
"&&&&&&&&++.&&&&#-----++.&&&&&&&#",
"&&&&&&&+*%+.&&&#----+**+.&&&&&&#",
"&&&&&&+*%==+.X++++X.%==%+.&&&&&#",
"&&&&&&+*=;:%%%%%%++++::=%.&&&&&#",
"O####O+%;X%*****%%%+++X;%.&&&&&#",
"------.+X%*******%%%+++X+.&&&&&#",
"-------.%*********%%++++.&&&&&&O",
"-------+%*  ******%%  ++.&&&&&&#",
"-------+%*$o******%%$o++.&&&&&&#",
"-------+%%o **@o @%+o ++.&&&&&&#",
"-------X+%%%%>    >++++X.&&&&&&#",
"--------X+%%>>>++>>:++X.&&&&&&&#",
"OO#O###O#X++:>%::%:=+X.#OO#####O",
"-------#&...+=::::=+...&&&&&&&&#",
"-------#+%%+........XX+.&&&&&&&O",
"-------+*%+++%**%%+XX+%+.&&&&&&O",
"------+*%+++%****%%+X.%%+.&&&&&#",
"----.+%%+X.+%****%%++.+%%+..&&&#",
"---.X+++X..+%****%%++..++++X.&&#",
"---.XX.....X+%**%%++X.....XX.&&#",
"----..%:%.X.X+%%%++X.X.%:%..OO#O",
"-----.>>:.+++X++++X+++.>>=.----#",
"-----.:::%%+XXXXXXXX+%%::=.----#",
"-----.%:=%+XX......XX+%:=+.----#",
"------.%%+X..&&#---..X+%+.-----#",
"-------....&&&&#-----....------#",
"-------O&&&&&&&#---------------O",
"-------O&&&&&&&O---------------#"
};
