/* XPM */
static char *result[] = {
/* columns rows colors chars-per-pixel */
"32 32 37 1 ",
"  c #4D3C2E",
". c #5A4636",
"X c #183B48",
"o c #1F4959",
"O c #366A7D",
"+ c #745B46",
"@ c #A43632",
"# c #A17828",
"$ c #8B784E",
"% c #D94E48",
"& c #E66862",
"* c #B8991E",
"= c #D0BA14",
"- c #E7DB0A",
"; c #FFFC00",
": c #9C8454",
"> c #A48A63",
", c #C4924D",
"< c #D9AF63",
"1 c #ECC76A",
"2 c #EECD79",
"3 c #376A92",
"4 c #5084A9",
"5 c #5599B2",
"6 c #699FC1",
"7 c #7FBAD8",
"8 c #A9A9B8",
"9 c #EA8580",
"0 c #F79995",
"q c #F8ACAC",
"w c #F6C5A8",
"e c #F5DEA4",
"r c #FFFEB7",
"t c #A0D4EE",
"y c #D9D9DD",
"u c #F3E8CB",
"i c white",
/* pixels */
"+.++++.+++++++..+++.+++++.++++++",
"$$$$$$$$$$$$$$$+:::::::+$$$$$$$+",
"$$$$$$$$$$$$$$$.:::::::+$$$$$$$+",
"$$$$$$$$$$$$$$$.:::::::+$$$$$$$.",
"$$$$$$$$$$$$*====**#:::.$$$$$$$+",
"$$$$$$$$$$*=-;rr;-==%%@+$$$$$$$+",
"$$$$$$$$$*rr;-;;-;-%00&@$$$$$$$+",
"$$$$$$$$*;r;=;=;=--%099%%$$$$$$+",
".++++.+*-;-=-r=r-==@&%%00@$$$$$+",
":::::::=;=;rr-=*r-#=@@@09%%%$$$+",
"::::::*-;-*--=*1=;;#=%9@%900%$$.",
"::::::*r;-=#**111==*#%0@&@%9@$$+",
":::::**r-=#1ooeeeeoo1%0%&@&@$$$+",
"::::*-*;-*1o5Ouuuu5Oo%0%9@@#$$$+",
":::*-;=-;*1eOXuuuuOX1%9%9@==#$$+",
":::*-r;-;=#wqwuuuuwqw*%=%=-=#$$+",
"..+.*-;;-=#,wweqqeww,*=---=#+++.",
":::*-=#==#8y,<<<<<<,y8*==#=-#$$+",
":::*=-=##378iii88iyy863##=-=#$$.",
"::::#==8yt76yii44iiy7t6y8==#$$$.",
":::::#8iiy643yy66yy367yii8#$$$$+",
":::::38iyiy3666666643yiyi83$$$$+",
":::::<e2ii867tttt76648ii2e,$$$$+",
"::::3<eey86iiy6777iiy68yee,3$$$+",
"::::84,,6yitt6y46ytt7yy4,,48..+.",
":::::y6yy7>>+y4yy4i+>>4yy4y::::+",
":::::8y66+++>+y44i+>+++44y8::::+",
":::::::88    +8888+    88::::::+",
":::::::.$$   $$+:::   :::::::::+",
":::::::+$$$$$$$+:::::::::::::::+",
":::::::.$$$$$$$+:::::::::::::::.",
":::::::.$$$$$$$.:::::::::::::::+"
};
