/* XPM */
static char *result[] = {
/* columns rows colors chars-per-pixel */
"32 32 51 1 ",
"  c #3A2D22",
". c #3A2D23",
"X c #3C2E24",
"o c #3F3125",
"O c #3F3126",
"+ c #4C351B",
"@ c #4C351C",
"# c #4F371C",
"$ c #523A1E",
"% c #573D1F",
"& c #423327",
"* c #453629",
"= c #48382B",
"- c #4C3B2D",
"; c #4F3D2F",
": c #513F30",
"> c #5B4021",
", c #5F4322",
"< c #524031",
"1 c #644624",
"2 c #674925",
"3 c #6A4B26",
"4 c #6C4C27",
"5 c #624B2F",
"6 c #624B30",
"7 c #664E31",
"8 c #6A5134",
"9 c #6F5636",
"0 c #6D5C3B",
"q c #6E5D3B",
"w c #755A39",
"e c #7B5E3C",
"r c #72603D",
"t c #604B40",
"y c #776440",
"u c #7D6943",
"i c #7F714E",
"p c #80633F",
"a c #856641",
"s c #846F47",
"d c #896943",
"f c #8B6B44",
"g c #8A744A",
"h c #907A4D",
"j c #967E50",
"k c #9A8253",
"l c #9C8454",
"z c #A79567",
"x c #AD9B6B",
"c c #B5A270",
"v c #D4B980",
/* pixels */
"fff<lff4<<<444444444444<lff4<fff",
"ffl<lff4<flcccccccccccl<lff4<lff",
"flf<lff4<flcccccccccccl<lff4<flf",
"fll<lff4<<44ffffffffff4<lff4<llf",
"fcc<lff4<<<<<<<<<<<<<<<<lff4<llf",
"fcc<lff4<tttttttttttttt<lff4<llf",
"fvv<lff4<tttttttttttttt<lff4<llf",
"fvv<lff4<<<<<<<<<<<<<<<<lff4<ccf",
"fvv<lff4<<<444444444444<lff4<ccf",
"fvv<lff4<flcccccccccccl<lff4<ccf",
"fvv<lff4<flcccccccccccl<lff4<vvf",
"fvv<lff4<<44ffffffffff4<lff4<vvf",
"fvv<lff4<<<<<<<<<<<<<<<<lff4<vvf",
"fvv<lff4<<<<<<ttttttttt<lff4<vvf",
"fvv<lff4<<<<<<<tttttttt<lff4<vvf",
"fvv<lff4<<<<<<<<ttttttt<lff4<vvf",
"fvv:kdd3:::333333333333:kdd3:vvf",
"fvv;jaa2;ajxxxxxxxxxxxj;jaa2;vvf",
"fvv-hpp1-phzzzzzzzzzzzh-hpp1-vvf",
"fvv=gee,==,,eeeeeeeeee,=gee,=vvf",
"fvv*sww>****************sww>*vvf",
"fvv&u99%&<O<O<<<<<<<<<t&u99%&vvf",
"fvvoy88$oOOOOOOOOOOOOOOoy88$ovvf",
"fvvXr77#XOO<O<O<<<<<<<<Xr77#Xvvf",
"fvv.q66@...@@@@@@@@@@@@.q66@.vvf",
"fvv 055+ 50iiiiiiiiiii0 055+ vvf",
"fvv 055+ 50iiiiiiiiiii0 055+ vvf",
"fvv 055+  ++5555555555+ 055+ vvf",
"fvvOOOOOOOOOOOOOOOOOOOOOOOOOOvvf",
"fvlvvvvvvvvvvvvvvvvvvvvvvvvvvlvf",
"flvvvvvvvvvvvvvvvvvvvvvvvvvvvvlf",
"ffffffffffffffffffffffffffffffff"
};
