/* XPM */
static char *result[] = {
/* columns rows colors chars-per-pixel */
"32 32 4 1 ",
"  c #5A4636",
". c #745B46",
"X c #8B784E",
"o c #9C8454",
/* pixels */
". .... .......  ... ..... ......",
"XXXXXXXXXXXXXXX.ooooooo.XXXXXXX.",
"XXXXXXXXXXXXXXX ooooooo.XXXXXXX.",
"XXXXXXXXXXXXXXX ooooooo.XXXXXXX ",
"XXXXXXXXXXXXXXX.ooooooo XXXXXXX.",
"XXXXXXXXXXXXXXX.ooooooo.XXXXXXX.",
"XXXXXXXXXXXXXXX.ooooooo XXXXXXX.",
"XXXXXXXXXXXXXXX.ooooooo.XXXXXXX.",
" .... ......   .ooooooo.XXXXXXX.",
"ooooooooooooooo ooooooo.XXXXXXX.",
"ooooooooooooooo.ooooooo.XXXXXXX ",
"ooooooooooooooo.ooooooo.XXXXXXX.",
"ooooooooooooooo.ooooooo XXXXXXX.",
"ooooooooooooooo.ooooooo.XXXXXXX.",
"ooooooooooooooo.ooooooo.XXXXXXX.",
"ooooooooooooooo.ooooooo.XXXXXXX.",
"  . ... ....  .. .  .. .  ..... ",
"ooooooo.XXXXXXX.XXXXXXXXXXXXXXX.",
"ooooooo.XXXXXXX.XXXXXXXXXXXXXXX ",
"ooooooo.XXXXXXX.XXXXXXXXXXXXXXX ",
"ooooooo.XXXXXXX.XXXXXXXXXXXXXXX.",
"ooooooo.XXXXXXX.XXXXXXXXXXXXXXX.",
"ooooooo.XXXXXXX.XXXXXXXXXXXXXXX.",
"ooooooo.XXXXXXX.XXXXXXXXXXXXXXX.",
"ooooooo.XXXXXXX ... .... ...  . ",
"ooooooo XXXXXXX.ooooooooooooooo.",
"ooooooo.XXXXXXX.ooooooooooooooo.",
"ooooooo.XXXXXXX.ooooooooooooooo.",
"ooooooo XXXXXXX.ooooooooooooooo.",
"ooooooo.XXXXXXX.ooooooooooooooo.",
"ooooooo XXXXXXX.ooooooooooooooo ",
"ooooooo XXXXXXX ooooooooooooooo."
};
