/* XPM */
static char *result[] = {
/* columns rows colors chars-per-pixel */
"32 32 6 1 ",
"  c #77747C",
". c #86838C",
"X c #A09EA8",
"o c #A7A7A7",
"O c #AFAFAF",
"+ c #B9B9B9",
/* pixels */
"OOOOOOOOOOOOOOO.+++++++++++++++.",
"OOOOOOOOOOOOOOO.+++++++++++++++ ",
"OOOOOOOOOOOOOOO +++++++++++++++ ",
"OOOOOOOOOOOOOOO.+++++++++++++++.",
"OOOOOOOOOOOOOOO.+++++++++++++++.",
"OOOOOOOOOOOOOOO.+++++++++++++++.",
"OOOOOOOOOOOOOOO.+++++++++++++++.",
"... ..... ....... ..... ...  ...",
"ooooooo.XXXXXXXXXXXXXXX.oooooooo",
"ooooooo.XXXXXXXXXXXXXXX.oooooooo",
"ooooooo.XXXXXXXXXXXXXXX.oooooooo",
"ooooooo.XXXXXXXXXXXXXXX.oooooooo",
"ooooooo.XXXXXXXXXXXXXXX.oooooooo",
"ooooooo XXXXXXXXXXXXXXX.oooooooo",
"ooooooo.XXXXXXXXXXXXXXX.oooooooo",
"...  ..... ..... ...... ...  ...",
"+++++++++++++++.OOOOOOOOOOOOOOO.",
"+++++++++++++++.OOOOOOOOOOOOOOO ",
"+++++++++++++++.OOOOOOOOOOOOOOO.",
"+++++++++++++++.OOOOOOOOOOOOOOO.",
"+++++++++++++++.OOOOOOOOOOOOOOO.",
"+++++++++++++++.OOOOOOOOOOOOOOO.",
"+++++++++++++++.OOOOOOOOOOOOOOO.",
"...  ....  ...... ..... ...  ...",
"XXXXXXX.ooooooooooooooo.XXXXXXXX",
"XXXXXXX.ooooooooooooooo.XXXXXXXX",
"XXXXXXX.ooooooooooooooo.XXXXXXXX",
"XXXXXXX.ooooooooooooooo XXXXXXXX",
"XXXXXXX.ooooooooooooooo.XXXXXXXX",
"XXXXXXX ooooooooooooooo.XXXXXXXX",
"XXXXXXX.ooooooooooooooo XXXXXXXX",
".... .... .... .....    ..... .."
};
